<svg width="17" height="18" viewBox="0 0 17 18" fill="none" xmlns="http://www.w3.org/2000/svg">
<path d="M9.60166 9.01842L16.7752 1.58349C17.0749 1.26888 17.0749 0.75922 16.7752 0.444613C16.4808 0.124383 15.9946 0.114765 15.6889 0.423125L8.51537 7.85806L1.43404 0.423125C1.28886 0.262124 1.08685 0.170898 0.875524 0.170898C0.664195 0.170898 0.462191 0.262124 0.31701 0.423125C0.0512839 0.727083 0.0512839 1.19358 0.31701 1.49754L7.39834 8.92173L0.224779 16.3459C-0.0749262 16.6605 -0.0749262 17.1702 0.224779 17.4848C0.367458 17.638 0.563687 17.7234 0.76792 17.7212C0.976089 17.7389 1.18246 17.6693 1.34181 17.5278L8.51537 10.0928L15.6889 17.6137C15.8316 17.7669 16.0278 17.8523 16.2321 17.8501C16.4361 17.8511 16.6319 17.7659 16.7752 17.6137C17.0749 17.2991 17.0749 16.7895 16.7752 16.4748L9.60166 9.01842Z" fill="black"/>
</svg>
