<svg width="19" height="24" viewBox="0 0 19 24" fill="none" xmlns="http://www.w3.org/2000/svg">
<path d="M16.7196 2.04786H2.28043C1.68234 2.04786 1.1975 1.58943 1.1975 1.02393C1.1975 0.458429 1.68234 0 2.28043 0H16.7196C17.3177 0 17.8025 0.458429 17.8025 1.02393C17.8025 1.58943 17.3177 2.04786 16.7196 2.04786Z" fill="#FEFDF9"/>
<path d="M17.918 14.0025C18.2062 14.0025 18.4822 14.1125 18.6833 14.3077C19.1056 14.7075 19.1056 15.3551 18.6833 15.7549L10.2653 23.7005C9.84247 24.0998 9.15753 24.0998 8.73473 23.7005L0.316708 15.7549C-0.105569 15.3551 -0.105569 14.7075 0.316708 14.3077C0.517828 14.1125 0.793795 14.0025 1.08198 14.0025C1.37017 14.0025 1.64614 14.1125 1.84726 14.3077L8.41706 20.5059V5.18791C8.41706 4.62241 8.90191 4.16398 9.5 4.16398C10.0981 4.16398 10.5829 4.62241 10.5829 5.18791V20.5059L17.1527 14.3077C17.3539 14.1125 17.6298 14.0025 17.918 14.0025Z" fill="#FEFDF9"/>
</svg>
